<mxfile host="app.diagrams.net" modified="2020-03-19T08:51:10.963Z" agent="Mozilla/5.0 (Macintosh; Intel Mac OS X 10_13_6) AppleWebKit/537.36 (KHTML, like Gecko) Chrome/80.0.3987.132 Safari/537.36" etag="2bZKcMYbysqMqJEHmMrX" version="12.8.8" type="github">
  <diagram id="YZncrpmMhG3LjY4V6r_u" name="Page-1">
    <mxGraphModel dx="893" dy="498" grid="1" gridSize="10" guides="1" tooltips="1" connect="1" arrows="1" fold="1" page="1" pageScale="1" pageWidth="827" pageHeight="1169" math="0" shadow="0">
      <root>
        <mxCell id="0" />
        <mxCell id="1" parent="0" />
        <mxCell id="5gfp_PzTi2W5NaD-2SVb-1" value="套餐类别 PackageType&lt;br&gt;CBOH_PACKAGETYPE_3CH" style="rounded=1;whiteSpace=wrap;html=1;" vertex="1" parent="1">
          <mxGeometry x="100" y="30" width="210" height="60" as="geometry" />
        </mxCell>
        <mxCell id="5gfp_PzTi2W5NaD-2SVb-2" value="套餐 PubPack&lt;br&gt;CBOH_PUBPACK_3CH" style="rounded=1;whiteSpace=wrap;html=1;" vertex="1" parent="1">
          <mxGeometry x="100" y="150" width="210" height="60" as="geometry" />
        </mxCell>
        <mxCell id="5gfp_PzTi2W5NaD-2SVb-3" value="" style="endArrow=none;html=1;entryX=0.5;entryY=1;entryDx=0;entryDy=0;" edge="1" parent="1" source="5gfp_PzTi2W5NaD-2SVb-2" target="5gfp_PzTi2W5NaD-2SVb-1">
          <mxGeometry width="50" height="50" relative="1" as="geometry">
            <mxPoint x="390" y="350" as="sourcePoint" />
            <mxPoint x="440" y="300" as="targetPoint" />
          </mxGeometry>
        </mxCell>
        <mxCell id="5gfp_PzTi2W5NaD-2SVb-4" value="套餐明细 PackageDtl&lt;br&gt;CBOH_PACKEGDTL_3CH" style="rounded=1;whiteSpace=wrap;html=1;" vertex="1" parent="1">
          <mxGeometry x="400" y="150" width="170" height="60" as="geometry" />
        </mxCell>
        <mxCell id="5gfp_PzTi2W5NaD-2SVb-5" value="套餐门店编码 PubPackCode&lt;br&gt;CBOH_PUBPACKCODE_3CH" style="rounded=1;whiteSpace=wrap;html=1;" vertex="1" parent="1">
          <mxGeometry x="100" y="280" width="210" height="60" as="geometry" />
        </mxCell>
        <mxCell id="5gfp_PzTi2W5NaD-2SVb-6" value="" style="endArrow=none;html=1;" edge="1" parent="1">
          <mxGeometry width="50" height="50" relative="1" as="geometry">
            <mxPoint x="205" y="279" as="sourcePoint" />
            <mxPoint x="205" y="212" as="targetPoint" />
          </mxGeometry>
        </mxCell>
        <mxCell id="5gfp_PzTi2W5NaD-2SVb-7" value="1" style="text;html=1;align=center;verticalAlign=middle;resizable=0;points=[];autosize=1;" vertex="1" parent="1">
          <mxGeometry x="200" y="210" width="20" height="20" as="geometry" />
        </mxCell>
        <mxCell id="5gfp_PzTi2W5NaD-2SVb-8" value="N" style="text;html=1;align=center;verticalAlign=middle;resizable=0;points=[];autosize=1;" vertex="1" parent="1">
          <mxGeometry x="200" y="260" width="20" height="20" as="geometry" />
        </mxCell>
        <mxCell id="5gfp_PzTi2W5NaD-2SVb-9" value="门店品牌 Brand&lt;br&gt;CBOH_BRAND_3CH" style="rounded=1;whiteSpace=wrap;html=1;" vertex="1" parent="1">
          <mxGeometry x="100" y="400" width="210" height="60" as="geometry" />
        </mxCell>
        <mxCell id="5gfp_PzTi2W5NaD-2SVb-10" value="" style="endArrow=none;html=1;entryX=0.5;entryY=1;entryDx=0;entryDy=0;" edge="1" parent="1" target="5gfp_PzTi2W5NaD-2SVb-5">
          <mxGeometry width="50" height="50" relative="1" as="geometry">
            <mxPoint x="205" y="400" as="sourcePoint" />
            <mxPoint x="440" y="300" as="targetPoint" />
          </mxGeometry>
        </mxCell>
        <mxCell id="5gfp_PzTi2W5NaD-2SVb-11" value="" style="endArrow=none;html=1;entryX=0;entryY=0.5;entryDx=0;entryDy=0;exitX=1;exitY=0.5;exitDx=0;exitDy=0;" edge="1" parent="1" source="5gfp_PzTi2W5NaD-2SVb-2" target="5gfp_PzTi2W5NaD-2SVb-4">
          <mxGeometry width="50" height="50" relative="1" as="geometry">
            <mxPoint x="390" y="350" as="sourcePoint" />
            <mxPoint x="440" y="300" as="targetPoint" />
          </mxGeometry>
        </mxCell>
        <mxCell id="5gfp_PzTi2W5NaD-2SVb-12" value="1" style="text;html=1;align=center;verticalAlign=middle;resizable=0;points=[];autosize=1;" vertex="1" parent="1">
          <mxGeometry x="310" y="166" width="20" height="20" as="geometry" />
        </mxCell>
        <mxCell id="5gfp_PzTi2W5NaD-2SVb-13" value="N" style="text;html=1;align=center;verticalAlign=middle;resizable=0;points=[];autosize=1;" vertex="1" parent="1">
          <mxGeometry x="380" y="166" width="20" height="20" as="geometry" />
        </mxCell>
        <mxCell id="5gfp_PzTi2W5NaD-2SVb-14" value="可换菜明细 ItemPkg&lt;br&gt;CBOH_ITEMPKG_3CH" style="rounded=1;whiteSpace=wrap;html=1;" vertex="1" parent="1">
          <mxGeometry x="400" y="280" width="170" height="60" as="geometry" />
        </mxCell>
        <mxCell id="5gfp_PzTi2W5NaD-2SVb-15" value="" style="endArrow=none;html=1;" edge="1" parent="1">
          <mxGeometry width="50" height="50" relative="1" as="geometry">
            <mxPoint x="484.6" y="277" as="sourcePoint" />
            <mxPoint x="484.6" y="210" as="targetPoint" />
          </mxGeometry>
        </mxCell>
        <mxCell id="5gfp_PzTi2W5NaD-2SVb-16" value="1" style="text;html=1;align=center;verticalAlign=middle;resizable=0;points=[];labelBackgroundColor=#ffffff;" vertex="1" connectable="0" parent="5gfp_PzTi2W5NaD-2SVb-15">
          <mxGeometry x="0.6418" y="-1" relative="1" as="geometry">
            <mxPoint x="4.4" y="-1.8" as="offset" />
          </mxGeometry>
        </mxCell>
        <mxCell id="5gfp_PzTi2W5NaD-2SVb-17" value="N" style="text;html=1;align=center;verticalAlign=middle;resizable=0;points=[];autosize=1;" vertex="1" parent="1">
          <mxGeometry x="480" y="260" width="20" height="20" as="geometry" />
        </mxCell>
        <mxCell id="5gfp_PzTi2W5NaD-2SVb-18" value="菜品 PubItem&lt;br&gt;CBOH_PUBITEM_3CH" style="rounded=1;whiteSpace=wrap;html=1;" vertex="1" parent="1">
          <mxGeometry x="650" y="150" width="170" height="60" as="geometry" />
        </mxCell>
        <mxCell id="5gfp_PzTi2W5NaD-2SVb-19" value="附加项关联关系&lt;br&gt;CBOH_PACKDTLREDFINE_3CH" style="rounded=1;whiteSpace=wrap;html=1;" vertex="1" parent="1">
          <mxGeometry x="650" y="280" width="170" height="60" as="geometry" />
        </mxCell>
        <mxCell id="5gfp_PzTi2W5NaD-2SVb-20" value="附加项 Redfine&lt;br&gt;CBOH_REDEFINE_3CH" style="rounded=1;whiteSpace=wrap;html=1;" vertex="1" parent="1">
          <mxGeometry x="650" y="400" width="170" height="60" as="geometry" />
        </mxCell>
        <mxCell id="5gfp_PzTi2W5NaD-2SVb-21" value="" style="endArrow=none;html=1;entryX=0;entryY=0.5;entryDx=0;entryDy=0;exitX=1;exitY=0.5;exitDx=0;exitDy=0;" edge="1" parent="1" source="5gfp_PzTi2W5NaD-2SVb-14" target="5gfp_PzTi2W5NaD-2SVb-19">
          <mxGeometry width="50" height="50" relative="1" as="geometry">
            <mxPoint x="510" y="300" as="sourcePoint" />
            <mxPoint x="560" y="250" as="targetPoint" />
          </mxGeometry>
        </mxCell>
        <mxCell id="5gfp_PzTi2W5NaD-2SVb-23" value="N" style="text;html=1;align=center;verticalAlign=middle;resizable=0;points=[];autosize=1;" vertex="1" parent="1">
          <mxGeometry x="630" y="290" width="20" height="20" as="geometry" />
        </mxCell>
        <mxCell id="5gfp_PzTi2W5NaD-2SVb-25" value="1" style="text;html=1;align=center;verticalAlign=middle;resizable=0;points=[];autosize=1;" vertex="1" parent="1">
          <mxGeometry x="570" y="290" width="20" height="20" as="geometry" />
        </mxCell>
        <mxCell id="5gfp_PzTi2W5NaD-2SVb-26" value="" style="endArrow=none;html=1;entryX=0;entryY=0.5;entryDx=0;entryDy=0;exitX=1;exitY=0.5;exitDx=0;exitDy=0;" edge="1" parent="1" source="5gfp_PzTi2W5NaD-2SVb-4" target="5gfp_PzTi2W5NaD-2SVb-18">
          <mxGeometry width="50" height="50" relative="1" as="geometry">
            <mxPoint x="580" y="320" as="sourcePoint" />
            <mxPoint x="660" y="320" as="targetPoint" />
            <Array as="points" />
          </mxGeometry>
        </mxCell>
        <mxCell id="5gfp_PzTi2W5NaD-2SVb-27" value="" style="endArrow=none;html=1;exitX=0;exitY=0;exitDx=0;exitDy=0;entryX=1;entryY=1;entryDx=0;entryDy=0;" edge="1" parent="1" source="5gfp_PzTi2W5NaD-2SVb-19" target="5gfp_PzTi2W5NaD-2SVb-4">
          <mxGeometry width="50" height="50" relative="1" as="geometry">
            <mxPoint x="510" y="300" as="sourcePoint" />
            <mxPoint x="560" y="250" as="targetPoint" />
          </mxGeometry>
        </mxCell>
        <mxCell id="5gfp_PzTi2W5NaD-2SVb-28" value="1" style="text;html=1;align=center;verticalAlign=middle;resizable=0;points=[];autosize=1;" vertex="1" parent="1">
          <mxGeometry x="560" y="210" width="20" height="20" as="geometry" />
        </mxCell>
        <mxCell id="5gfp_PzTi2W5NaD-2SVb-29" value="N" style="text;html=1;align=center;verticalAlign=middle;resizable=0;points=[];autosize=1;" vertex="1" parent="1">
          <mxGeometry x="640" y="260" width="20" height="20" as="geometry" />
        </mxCell>
        <mxCell id="5gfp_PzTi2W5NaD-2SVb-30" value="" style="endArrow=none;html=1;entryX=0.5;entryY=1;entryDx=0;entryDy=0;exitX=0.964;exitY=0.02;exitDx=0;exitDy=0;exitPerimeter=0;" edge="1" parent="1" source="5gfp_PzTi2W5NaD-2SVb-14" target="5gfp_PzTi2W5NaD-2SVb-18">
          <mxGeometry width="50" height="50" relative="1" as="geometry">
            <mxPoint x="510" y="300" as="sourcePoint" />
            <mxPoint x="560" y="250" as="targetPoint" />
          </mxGeometry>
        </mxCell>
        <mxCell id="5gfp_PzTi2W5NaD-2SVb-31" value="1" style="text;html=1;align=center;verticalAlign=middle;resizable=0;points=[];autosize=1;" vertex="1" parent="1">
          <mxGeometry x="570" y="160" width="20" height="20" as="geometry" />
        </mxCell>
        <mxCell id="5gfp_PzTi2W5NaD-2SVb-32" value="1" style="text;html=1;align=center;verticalAlign=middle;resizable=0;points=[];autosize=1;" vertex="1" parent="1">
          <mxGeometry x="630" y="160" width="20" height="20" as="geometry" />
        </mxCell>
        <mxCell id="5gfp_PzTi2W5NaD-2SVb-33" value="1" style="text;html=1;align=center;verticalAlign=middle;resizable=0;points=[];autosize=1;" vertex="1" parent="1">
          <mxGeometry x="560" y="260" width="20" height="20" as="geometry" />
        </mxCell>
        <mxCell id="5gfp_PzTi2W5NaD-2SVb-34" value="1" style="text;html=1;align=center;verticalAlign=middle;resizable=0;points=[];autosize=1;" vertex="1" parent="1">
          <mxGeometry x="725" y="210" width="20" height="20" as="geometry" />
        </mxCell>
        <mxCell id="5gfp_PzTi2W5NaD-2SVb-36" value="" style="endArrow=none;html=1;" edge="1" parent="1">
          <mxGeometry width="50" height="50" relative="1" as="geometry">
            <mxPoint x="735" y="400" as="sourcePoint" />
            <mxPoint x="735" y="343" as="targetPoint" />
          </mxGeometry>
        </mxCell>
      </root>
    </mxGraphModel>
  </diagram>
</mxfile>
